<?xml version="1.0" encoding="UTF-8"?>
<svg id="Capa_2" data-name="Capa 2" xmlns="http://www.w3.org/2000/svg" xmlns:xlink="http://www.w3.org/1999/xlink" viewBox="0 0 775 775">
  <defs>
    <style>
      .cls-1 {
        fill: #fff;
        filter: url(#outer-glow-2);
        stroke: #a9e365;
        stroke-miterlimit: 10;
      }

      .cls-2 {
        fill: #a9e365;
        filter: url(#outer-glow-1);
      }
    </style>
    <filter id="outer-glow-1" filterUnits="userSpaceOnUse">
      <feOffset dx="0" dy="0"/>
      <feGaussianBlur result="blur" stdDeviation="7"/>
      <feFlood flood-color="#000" flood-opacity=".45"/>
      <feComposite in2="blur" operator="in"/>
      <feComposite in="SourceGraphic"/>
    </filter>
    <filter id="outer-glow-2" filterUnits="userSpaceOnUse">
      <feOffset dx="0" dy="0"/>
      <feGaussianBlur result="blur-2" stdDeviation="7"/>
      <feFlood flood-color="#000" flood-opacity=".45"/>
      <feComposite in2="blur-2" operator="in"/>
      <feComposite in="SourceGraphic"/>
    </filter>
  </defs>
  <g id="Capa_1-2" data-name="Capa 1">
    <g>
      <circle class="cls-2" cx="387.5" cy="387.5" r="366.5"/>
      <path class="cls-1" d="m611.86,502.2c-.46-4.7-1.35-8.83-2.33-12.26-2.1-1.03-4.64-2.08-7.59-2.92-4.51-1.29-8.54-1.69-11.68-1.75-1.67.21-3.92.68-6.42,1.75-2.92,1.26-5.05,2.87-6.42,4.09-1.09,1.04-2.32,2.38-3.5,4.08-.71,1.02-1.28,2.01-1.75,2.92-.4-.65-.89-1.64-1.17-2.92-.38-1.76-.18-3.23,0-4.08,2.33-5.85,4.66-12.9,6.42-21.02,1.52-7,2.33-13.42,2.72-19.03.77-8.17,1.28-17.03,1.37-26.5.09-10.73-.37-20.7-1.17-29.8-1.15-7.62-2.82-16.05-5.25-25.06-2.77-10.26-6.01-19.4-9.28-27.32-4.27-8.04-10.47-17.94-19.32-28.13-8.41-9.69-16.87-16.93-23.93-22.18-8.3-7.01-18.38-14.49-30.36-21.6-7.21-4.28-14.16-7.86-20.67-10.86-5.05-1.77-10.83-3.49-17.27-4.9-6-1.31-11.59-2.14-16.62-2.66.03-.39.11-.88.28-1.43.26-.82.65-1.44.95-1.85,3.08-3.96,6.15-7.92,9.23-11.87.46-.58,1.05-1.45,1.49-2.62.35-.9.5-1.71.58-2.35-.69.39-1.38.78-2.07,1.17-1.32,1.64-2.95,3.45-4.93,5.27-1.41,1.3-2.79,2.41-4.09,3.36-.82.79-1.79,1.63-2.91,2.47-1.04.78-2.05,1.43-2.97,1.97-.56.32-1.33.69-2.28.95-.79.22-1.49.3-2.06.33,3.66-4.87,7.31-9.73,10.97-14.59,1.59-3.91,3.14-8.31,4.51-13.17,1.03-3.67,1.84-7.16,2.46-10.42.61-2.52,1.18-5.28,1.63-8.26.42-2.81.69-5.47.85-7.92.45-4.61.9-9.21,1.35-13.81-.15-5.99-.3-11.97-.45-17.96.03-.06.28-.6,0-1.17-.3-.59-.91-.7-.97-.71-.1.13-.24.33-.39.58-.36.58-.61,1.17-.98,2.47-.17.62-.38,1.41-.58,2.33-.28.64-.57,1.28-.85,1.91.02-.18.13-1.59-.9-2.49-.42-.37-.88-.52-1.17-.59.11,2.55.03,5.74-.58,9.34-.69,4.05-1.84,7.4-2.92,9.93-.2-.78-.39-1.56-.58-2.34-.03-.55-.03-1.13,0-1.75.04-1.13.18-2.16.35-3.06.13-1.59.26-3.19.39-4.78-.08-1.02-.14-2.11-.16-3.25-.02-.98-.01-1.93.02-2.82.03-1.53.06-3.06.09-4.59-.07-.38-.34-.68-.69-.76-.39-.09-.7.12-.75.16-.07,1.5-.19,3.43-.42,5.68-.07.67-.25,2.31-.59,4.67-.52,3.63-1.01,5.15-1.3,7.62-.35,2.91-.69,5.81-1.03,8.72-.97,4.08-1.95,8.17-2.92,12.26-.31-.22-.77-.59-1.17-1.17-.3-.44-.47-.85-.58-1.17v-3.5c.53-1.77,1-3.93,1.17-6.42.38-5.9-1.16-10.64-2.34-13.43-1.31-3.46-2.67-6.97-4.08-10.5-.97-2.44-1.95-4.85-2.93-7.23-1.04-1.81-2.2-3.68-3.49-5.61-1.57-2.35-3.14-4.48-4.67-6.42-3.71-4.55-7.2-8.03-9.93-10.51-3.03-2.78-5.97-5.45-10.5-8.17-2.28-1.37-5.01-2.8-8.17-4.09-4.12-1.67-7.91-2.67-11.09-3.28-2.51-.41-5.93-.69-9.93-.22-3.01.36-5.57,1.05-7.59,1.75-1.93,1-4.14,2.32-6.42,4.09-1.46,1.13-2.73,2.27-3.83,3.35-1.23,1.69-2.52,3.68-3.75,5.99-1.57,2.9-2.68,5.64-3.48,8.02-.29,2.19-.51,4.58-.61,7.15-.13,3.3-.03,6.33.18,9.05.38,2.07.88,4.32,1.57,6.71.55,1.89,1.14,3.64,1.75,5.25,1.75,3.9,3.5,7.79,5.26,11.68.42.87.98,1.87,1.75,2.92,1.16,1.58,2.4,2.74,3.41,3.55,1.28.21,2.56.41,3.84.61.15-.1.71-.49.92-1.25.15-.53.04-.99-.02-1.19-.04-.1-.34-.86-1.15-1.14-.53-.18-1-.05-1.17,0h-1.75c-.44-.64-.88-1.27-1.32-1.91-1.44-1.79-3.04-4.06-4.51-6.85-1.74-3.25-2.82-6.28-3.51-8.75-.52-2.96-.95-6.28-1.16-9.92-.24-3.98-.19-7.62.02-10.85.26-1.87.62-3.91,1.14-6.08.46-1.92.99-3.69,1.53-5.3.99-1.13,2.03-2.29,3.14-3.46.95-.99,1.89-1.94,2.81-2.85,1.18-1.1,2.76-2.37,4.78-3.57,1.99-1.17,3.85-1.93,5.37-2.43,1.77-.41,3.68-.77,5.72-1.07,1.54-.22,3.02-.39,4.42-.52,1.61.09,3.72.35,6.09,1.11,2.08.66,3.78,1.51,5.05,2.26,1.05.38,2.34.95,3.7,1.82,1.78,1.14,3.06,2.4,3.93,3.39,4.94,6.7,9.88,13.39,14.81,20.09,1.51,2.13,3.1,4.61,4.61,7.46,1.85,3.47,3.21,6.74,4.23,9.63,1.23,3.19,2.44,7,3.36,11.38,1.09,5.2,1.48,9.88,1.55,13.76.22,1.46.36,3.34.2,5.5-.18,2.37-.68,4.35-1.17,5.84-.29,1.93-.76,4.71-1.46,8.06-.6,2.89-.9,4.37-1.46,5.95-1.25,3.57-2.96,6.32-4.37,8.24-1.85,3.09-3.7,6.18-5.55,9.27-.59,1.64-1.5,3.68-2.92,5.83-1.74,2.65-3.64,4.56-5.13,5.84-1.31.95-2.91,1.97-4.79,2.92-1.62.82-3.15,1.43-4.51,1.9-4.34.14-8.67.29-13,.43-2.4.11-4.94.29-7.59.59-5.12.57-8.97,1.36-11.78,1.96-11.81,2.51-24.4,5.51-27.33,6.21-10.15,4.53-20.31,9.06-30.46,13.59-8.33,4.53-17.13,9.87-26.15,16.18-3.89,2.72-7.59,5.45-11.09,8.17-6.24,6.22-12.73,13.21-19.27,21.01-8.15,9.73-15.1,19.19-21.01,28.02-2.34,4.04-4.71,8.52-7,13.42-2.6,5.57-4.71,10.86-6.42,15.76-2.85,10.9-5.36,23.21-7.01,36.78-1.13,9.33-1.7,14.13-1.75,21.01-.07,10.46,1.08,18.32,1.75,22.76.18,1.17.37,2.34.58,3.51-4.58.3-12.02,1.45-19.84,5.83-3.94,2.21-7.01,4.69-9.3,6.87-2.54,3.8-5.71,9.54-7.63,17.06-2.8,11.04-1.54,20.54-.25,26.15.14.61.28,1.18.42,1.7,1.3,8.06,3.53,17.69,7.42,28.19,3.01,8.13,6.42,15.16,9.7,21.05,2.57,2.72,5.92,5.78,10.15,8.72,6.42,4.45,12.57,7.01,17.24,8.52,2.31.65,5.38,1.28,9.02,1.4,4.32.14,7.93-.5,10.51-1.17,1.05.19,2.61.63,4.09,1.75,1.85,1.42,2.63,3.23,2.82,3.62,1.91,4.08,14.76,17.4,28.11,27.9,12.98,10.21,25.52,17.04,35.61,21.6,10.23,4.73,23.38,9.77,39.1,13.42,15.6,3.63,29.51,4.91,40.72,5.2,13.1.11,28.8-.8,46.25-4.03,12.18-2.25,23.05-5.23,32.49-8.37,12.94-3.25,29.64-8.89,47.48-19.06,11.88-6.78,21.6-14.05,29.29-20.67,4.13-3.71,8.84-8.63,13.32-14.94,2.61-3.68,4.72-7.24,6.42-10.5,1.12,1.07,2.85,2.46,5.25,3.5,4.53,1.96,8.68,1.49,10.51,1.17,3.98-2.42,8.99-5.98,14.01-11.09,5.51-5.62,9.18-11.21,11.56-15.51,3.25-4.76,6.94-11.08,10.03-18.93,2.77-7.01,4.34-13.42,5.26-18.68.24-1.46.45-3.06.61-4.79.36-3.86.46-8.35-.03-13.3Zm-393.41,10.5c3.72,1.35,5.83,2.11,6.31,2.3-.51-.16-2.68-.92-6.51-2.28-.43-1.14-.86-2.3-1.29-3.46.58,1.37,1.09,2.53,1.49,3.44Z"/>
    </g>
  </g>
</svg>