<?xml version="1.0" encoding="UTF-8"?>
<svg id="Capa_2" data-name="Capa 2" xmlns="http://www.w3.org/2000/svg" viewBox="0 0 245.5 274.04">
  <g id="Capa_1-2" data-name="Capa 1">
    <path d="m71,126h118.53c1-.99,2.91-3.14,3.97-6.5,1.04-3.3.74-6.11.5-7.5-6.45-6.45-12.89-12.89-19.34-19.34-1.52-4.9.03-10.15,3.84-13.16,4.82-3.8,10.69-1.99,11.16-1.84,18.11,18.11,36.23,36.23,54.34,54.34.47.76,1.58,2.75,1.5,5.5-.07,2.43-1.02,4.18-1.5,4.95-17.93,17.93-35.85,35.85-53.78,53.78-.67.16-6.76,1.48-11.72-2.72-3.77-3.19-5.43-8.34-4.3-13.3,6.67-6.67,13.33-13.33,20-20,.13-.85.55-4.35-1.7-7.7-1.72-2.55-4.06-3.63-5-4h-116.5c-6.33-1.44-10.34-7.33-9.5-13,.68-4.61,4.49-8.49,9.5-9.5Z"/>
    <path d="m178,20c-6.57-.07-141.13-1.49-150,0-4.02.67-6,3-6,3-1.74,2.04-1.96,4.6-2,6-.16,5.76-.18,93.25,0,213,.18,1.35.76,4.25,3,7,3.31,4.05,7.85,4.84,9,5h146v20c-49.63.01-99.26.03-148.88.04-3.3-.63-13.28-2.98-21.12-12.04-5.3-6.13-7.24-12.57-8-16V26.96c.17-2.18,1.12-11.48,9-18.96C16.7.69,25.76.09,28,0h150v20Z"/>
  </g>
</svg>