<?xml version="1.0" encoding="UTF-8"?>
<svg id="Capa_2" data-name="Capa 2" xmlns="http://www.w3.org/2000/svg" viewBox="0 0 245.5 274.03">
  <defs>
    <style>
      .cls-1 {
        fill: none;
        stroke: #000;
        stroke-miterlimit: 10;
        stroke-width: 20px;
      }
    </style>
  </defs>
  <g id="Capa_1-2" data-name="Capa 1">
    <path class="cls-1" d="m174,10H28c-1.54.07-7.16.51-12,5-5.49,5.09-5.94,11.66-6,13v216.06c.47,2.24,1.97,7.9,7,12.94,5.05,5.05,10.73,6.56,12.97,7.03h144.03"/>
    <path d="m71,127h118.53c1-.99,2.91-3.14,3.97-6.5,1.04-3.3.74-6.11.5-7.5-6.45-6.45-12.89-12.89-19.34-19.34-1.52-4.9.03-10.15,3.84-13.16,4.82-3.8,10.69-1.99,11.16-1.84,18.11,18.11,36.23,36.23,54.34,54.34.47.76,1.58,2.75,1.5,5.5-.07,2.43-1.02,4.18-1.5,4.95l-53.78,53.78c-.67.16-6.76,1.48-11.72-2.72-3.77-3.19-5.43-8.34-4.3-13.3,6.67-6.67,13.33-13.33,20-20,.13-.85.55-4.35-1.7-7.7-1.72-2.55-4.06-3.63-5-4h-116.5c-6.33-1.44-10.34-7.33-9.5-13,.68-4.61,4.49-8.49,9.5-9.5Z"/>
  </g>
</svg>